<svg xmlns="http://www.w3.org/2000/svg" width="120" height="33" viewBox="0 0 120 33" fill="none">
      <g clip-path="url(#clip0_1_4345)">
        <path d="M10.3997 17.3826L5.48768 6.17702H0V21.7958H3.56891V9.74593L8.86473 21.7958H11.7813L17.1154 9.74593V21.7958H20.646V6.17702H15.235L10.3997 17.3826ZM31.1992 6.17702L23.3706 21.8342H27.2466L28.8967 18.4955H37.4928L39.1429 21.8342H43.0956L35.3054 6.17702H31.1992ZM30.3933 15.4639L33.2331 9.74593L36.0345 15.4639H30.3933ZM62.7055 6.17702H57.6783L49.5043 13.3149V6.17702H45.8586V21.7958H49.5043V17.4978L52.3825 15.0034L58.5225 21.7958H63.2043L55.0304 12.7392L62.7055 6.17702ZM65.6987 21.7958H80.8954V18.6874H69.2677V15.3487H79.629V12.2787H69.2677V9.28542H80.8954V6.17702H65.6987V21.7958ZM113.898 6.17702H104.036V21.8342H107.681V16.3849H113.898C117.582 16.3849 120 14.6196 120 11.2809C120 7.90391 117.582 6.17702 113.898 6.17702ZM113.706 13.3149H107.681V9.24705H113.706C115.433 9.24705 116.393 9.97618 116.393 11.2809C116.393 12.5473 115.395 13.3149 113.706 13.3149ZM96.7445 14.3126C96.7445 17.0756 95.4781 18.8793 92.2545 18.8793C89.031 18.8793 87.7262 17.0756 87.7262 14.3126V6.17702H84.0806V14.6196C84.0806 19.1479 86.7669 22.0644 92.2162 22.0644C97.6271 22.0644 100.352 19.1479 100.352 14.6196V6.17702H96.7061V14.3126H96.7445ZM92.2545 4.14312C92.6767 4.14312 93.0988 4.18149 93.4826 4.25825L95.4013 1.30333C94.5571 0.612574 93.6361 0.152069 92.2545 0.152069C90.873 0.152069 89.9137 0.574199 89.0694 1.30333L90.9882 4.25825C91.4103 4.18149 91.8324 4.14312 92.2545 4.14312ZM19.8017 32.7712V28.8185H21.567C22.2577 28.8185 22.6799 29.2407 22.6799 29.8163C22.6799 30.3152 22.3345 30.6605 21.9891 30.7373C22.4113 30.814 22.7566 31.2362 22.7566 31.6967C22.7566 32.3491 22.3345 32.7712 21.6054 32.7712H19.8017ZM22.1426 29.893C22.1426 29.5477 21.9124 29.2407 21.4519 29.2407H20.2622V30.507H21.4519C21.9124 30.507 22.1426 30.2384 22.1426 29.893ZM22.2194 31.6583C22.2194 31.3129 21.9508 30.9676 21.4902 30.9676H20.2622V32.3491H21.4902C21.9508 32.3491 22.2194 32.0804 22.2194 31.6583ZM24.1381 32.7712V28.8185H26.7477V29.2407H24.637V30.507H26.7093V30.9292H24.637V32.3107H26.7477V32.7328H24.1381V32.7712ZM30.9306 32.7712L30.5852 31.8886H28.5897L28.2443 32.7712H27.6687L29.2805 28.8185H29.8945L31.5062 32.7712H30.9306ZM29.5875 29.3174L28.7432 31.4664H30.4317L29.5875 29.3174ZM32.4656 31.2362V28.8185H32.9645V31.2362C32.9645 31.9653 33.3483 32.4258 34.0774 32.4258C34.8065 32.4258 35.1903 31.9653 35.1903 31.2362V28.8185H35.6892V31.2362C35.6892 32.2339 35.1519 32.8479 34.0774 32.8479C33.0029 32.8479 32.4656 32.1956 32.4656 31.2362ZM38.2219 32.7712V29.2407H36.9555V28.8185H39.9488V29.2407H38.6824V32.7712H38.2219ZM42.3665 32.7712V31.0827L40.7931 28.7801H41.3687L42.5967 30.6222L43.8247 28.7801H44.4004L42.827 31.0827V32.7712H42.3665ZM50.694 32.7712L49.8113 29.586L48.9287 32.7712H48.3914L47.2785 28.8185H47.8158L48.6984 32.1188L49.6194 28.8185H50.0416L50.9626 32.1188L51.8452 28.8185H52.3825L51.2696 32.7712H50.694ZM53.5337 32.7712V28.8185H54.0326V32.7712H53.5337ZM56.527 32.7712V29.2407H55.2606V28.8185H58.2923V29.2407H57.0259V32.7712H56.527ZM62.3601 32.7712V30.9676H60.0192V32.7712H59.5203V28.8185H60.0192V30.5454H62.3601V28.8185H62.859V32.7712H62.3601ZM64.2021 30.7757C64.2021 29.586 65.008 28.7034 66.1592 28.7034C67.3489 28.7034 68.1164 29.586 68.1164 30.7757C68.1164 31.9653 67.3105 32.8479 66.1592 32.8479C65.008 32.8479 64.2021 31.9653 64.2021 30.7757ZM67.6559 30.7757C67.6559 29.8547 67.0803 29.1639 66.1976 29.1639C65.315 29.1639 64.7394 29.8547 64.7394 30.7757C64.7394 31.6967 65.315 32.3874 66.1976 32.3874C67.0803 32.3874 67.6559 31.6967 67.6559 30.7757ZM69.5363 31.2362V28.8185H70.0352V31.2362C70.0352 31.9653 70.4189 32.4258 71.1481 32.4258C71.8772 32.4258 72.2609 31.9653 72.2609 31.2362V28.8185H72.7598V31.2362C72.7598 32.2339 72.2226 32.8479 71.1481 32.8479C70.0735 32.8479 69.5363 32.1956 69.5363 31.2362ZM75.2542 32.7712V29.2407H73.9878V28.8185H76.9811V29.2407H75.7531V32.7712H75.2542ZM80.3965 32.7712V28.8185H80.8954V32.3491H82.7374V32.7712H80.3965ZM84.0422 32.7712V28.8185H84.5411V32.7712H84.0422ZM89.4531 32.7712V29.5093L88.11 32.7712H87.9181L86.575 29.5093V32.7712H86.0761V28.8185H86.7669L87.9949 31.8118L89.2229 28.8185H89.9136V32.7712H89.4531ZM91.487 32.7712V28.8185H91.9859V32.7712H91.487ZM94.4803 32.7712V29.2407H93.2139V28.8185H96.2072V29.2407H94.9408V32.7712H94.4803ZM97.205 32.1956L97.512 31.8118C97.7806 32.1188 98.2027 32.3874 98.7784 32.3874C99.4691 32.3874 99.6994 32.0037 99.6994 31.6967C99.6994 30.6605 97.3585 31.2362 97.3585 29.8163C97.3585 29.1639 97.9341 28.7034 98.74 28.7034C99.354 28.7034 99.8145 28.8953 100.16 29.2407L99.8529 29.586C99.5459 29.2407 99.1237 29.1255 98.7016 29.1255C98.2411 29.1255 97.8957 29.3942 97.8957 29.7395C97.8957 30.6222 100.237 30.1233 100.237 31.6199C100.237 32.1956 99.8529 32.7712 98.7784 32.7712C98.0492 32.8479 97.5504 32.5793 97.205 32.1956Z" fill="black" />
      </g>
      <defs>
        <clipPath id="clip0_1_4345">
          <rect width="120" height="32.6959" fill="white" transform="translate(0 0.152069)" />
        </clipPath>
      </defs>
    </svg>